<svg width="256" height="256" viewBox="0 0 256 256" fill="none" xmlns="http://www.w3.org/2000/svg" role="img" aria-labelledby="title desc">
  <title id="title">VLA-Corrector mark</title>
  <desc id="desc">A geometric mark showing a lightweight correction loop around a VLA action path.</desc>
  <defs>
    <linearGradient id="bg" x1="30" y1="20" x2="226" y2="238" gradientUnits="userSpaceOnUse">
      <stop stop-color="#0F766E"/>
      <stop offset="0.48" stop-color="#2563EB"/>
      <stop offset="1" stop-color="#7C3AED"/>
    </linearGradient>
    <linearGradient id="line" x1="62" y1="68" x2="198" y2="188" gradientUnits="userSpaceOnUse">
      <stop stop-color="#A7F3D0"/>
      <stop offset="0.52" stop-color="#67E8F9"/>
      <stop offset="1" stop-color="#DDD6FE"/>
    </linearGradient>
    <filter id="shadow" x="-30%" y="-30%" width="160%" height="160%">
      <feDropShadow dx="0" dy="18" stdDeviation="18" flood-color="#0F172A" flood-opacity="0.28"/>
    </filter>
  </defs>
  <rect x="20" y="20" width="216" height="216" rx="48" fill="url(#bg)" filter="url(#shadow)"/>
  <path d="M73 88C88.3 65.4 119.9 56.5 146.2 67.8C167.2 76.8 180.6 94.4 184.2 114.6" stroke="url(#line)" stroke-width="13" stroke-linecap="round"/>
  <path d="M183.9 114.7L203.5 96.6" stroke="#E0F2FE" stroke-width="13" stroke-linecap="round"/>
  <path d="M183.9 114.7L161.9 98.9" stroke="#E0F2FE" stroke-width="13" stroke-linecap="round"/>
  <path d="M183 168C167.7 190.6 136.1 199.5 109.8 188.2C88.8 179.2 75.4 161.6 71.8 141.4" stroke="url(#line)" stroke-width="13" stroke-linecap="round"/>
  <path d="M72.1 141.3L52.5 159.4" stroke="#ECFEFF" stroke-width="13" stroke-linecap="round"/>
  <path d="M72.1 141.3L94.1 157.1" stroke="#ECFEFF" stroke-width="13" stroke-linecap="round"/>
  <circle cx="93" cy="128" r="16" fill="#F8FAFC"/>
  <circle cx="128" cy="128" r="16" fill="#F8FAFC"/>
  <circle cx="163" cy="128" r="16" fill="#F8FAFC"/>
  <path d="M93 128H163" stroke="#F8FAFC" stroke-width="9" stroke-linecap="round"/>
  <path d="M111 146L128 164L145 146" stroke="#FDE68A" stroke-width="11" stroke-linecap="round" stroke-linejoin="round"/>
</svg>
